<?xml version="1.0" encoding="UTF-8" standalone="no"?>
<!-- Created with Inkscape (http://www.inkscape.org/) -->

<svg
   xmlns:dc="http://purl.org/dc/elements/1.1/"
   xmlns:cc="http://creativecommons.org/ns#"
   xmlns:rdf="http://www.w3.org/1999/02/22-rdf-syntax-ns#"
   xmlns:svg="http://www.w3.org/2000/svg"
   xmlns="http://www.w3.org/2000/svg"
   xmlns:sodipodi="http://sodipodi.sourceforge.net/DTD/sodipodi-0.dtd"
   xmlns:inkscape="http://www.inkscape.org/namespaces/inkscape"
   width="744.09448"
   height="1052.3622"
   viewBox="0 0 744.09449 1052.3622"
   id="svg2"
   version="1.1"
   inkscape:version="0.91 r13725"
   sodipodi:docname="side_b.svg">
  <defs
     id="defs4" />
  <sodipodi:namedview
     id="base"
     pagecolor="#ffffff"
     bordercolor="#666666"
     borderopacity="1.0"
     inkscape:pageopacity="0.0"
     inkscape:pageshadow="2"
     inkscape:zoom="5.6"
     inkscape:cx="30.360928"
     inkscape:cy="61.426155"
     inkscape:document-units="px"
     inkscape:current-layer="layer2"
     showgrid="true"
     inkscape:window-width="1855"
     inkscape:window-height="1056"
     inkscape:window-x="65"
     inkscape:window-y="24"
     inkscape:window-maximized="1"
     showguides="false"
     inkscape:snap-to-guides="true"
     inkscape:snap-grids="true"
     inkscape:snap-page="true"
     inkscape:snap-bbox="true"
     inkscape:snap-global="true"
     inkscape:bbox-paths="true"
     units="px">
    <inkscape:grid
       type="xygrid"
       id="grid3338" />
    <sodipodi:guide
       position="0,0"
       orientation="0,744.09449"
       id="guide4399" />
    <sodipodi:guide
       position="744.09449,0"
       orientation="-1052.3622,0"
       id="guide4401" />
    <sodipodi:guide
       position="744.09449,1052.3622"
       orientation="0,-744.09449"
       id="guide4403" />
    <sodipodi:guide
       position="0,1052.3622"
       orientation="1052.3622,0"
       id="guide4405" />
  </sodipodi:namedview>
  <metadata
     id="metadata7">
    <rdf:RDF>
      <cc:Work
         rdf:about="">
        <dc:format>image/svg+xml</dc:format>
        <dc:type
           rdf:resource="http://purl.org/dc/dcmitype/StillImage" />
        <dc:title></dc:title>
      </cc:Work>
    </rdf:RDF>
  </metadata>
  <g
     inkscape:groupmode="layer"
     id="layer2"
     inkscape:label="Layer 2"
     style="display:none" />
  <g
     inkscape:groupmode="layer"
     id="layer1"
     inkscape:label="Layer 3"
     style="display:inline">
    <path
       style="display:inline;fill:#00ff00;fill-opacity:1;stroke:#00ff00;stroke-width:1.78571427;stroke-linecap:square;stroke-linejoin:miter;stroke-miterlimit:4;stroke-dasharray:none;stroke-opacity:1"
       d="m 0.64664243,997.32888 0,-54.46428 54.37499957,0 54.374998,0 0,54.46428 0,54.46432 -54.374998,0 -54.37499957,0 0,-54.46432 z m 39.99999957,25.53572 0,-20 14.375,0 14.375,0 0,4.4643 0,4.4643 -10,0 -10,0 0,15.5357 0,15.5357 25.625,0 25.624998,0 0,-5.5357 0,-5.5357 -19.999998,0 -20,0 0,-4.4643 0,-4.4643 19.640816,0 c 18.326856,0 19.664845,-0.021 20.000002,-0.3075 0.35672,-0.3055 0.35918,-0.4808 0.35918,-25.53576 l 0,-25.22817 -5.624998,0 -5.625,0 0,20 0,20.00003 -4.375,0 -4.375,0 0,-10 0,-10.00003 -25.625,0 -25.625,0 0,10.00003 0,10 -4.375,0 -4.375,0 0,-14.46432 0,-14.46428 30,0 30,0 0,-10 0,-10 10,0 9.999998,0 0,-5.26786 c 0,-4.56349 -0.0358,-5.26786 -0.26785,-5.26786 -0.14733,0 -0.26786,-0.12053 -0.26786,-0.26785 0,-0.23684 -2.936509,-0.26786 -25.357145,-0.26786 l -25.357143,0 0,5.53571 0,5.53572 10,0 10,0 0,4.46428 0,4.46429 -24.375,0 -24.375,0 0,-4.46429 0,-4.46428 10,0 10,0 0,-5.53572 0,-5.53571 -15.625,0 -15.6249996,0 0,35.53571 0,35.53572 9.9999996,0 10,0 0,4.4643 0,4.4643 -10,0 -9.9999996,0 0,5.3571 c 0,4.6429 0.035714,5.3572 0.2678572,5.3572 0.1473214,0 0.2678571,0.08 0.2678571,0.1785 0,0.1177 5.2380953,0.1786 15.3571433,0.1786 l 15.357142,0 0,-20 z"
       id="path3366"
       inkscape:connector-curvature="0" />
  </g>
</svg>
