<?xml version="1.0" encoding="UTF-8" standalone="no"?>
<!-- Created with Inkscape (http://www.inkscape.org/) -->

<svg
   xmlns:dc="http://purl.org/dc/elements/1.1/"
   xmlns:cc="http://creativecommons.org/ns#"
   xmlns:rdf="http://www.w3.org/1999/02/22-rdf-syntax-ns#"
   xmlns:svg="http://www.w3.org/2000/svg"
   xmlns="http://www.w3.org/2000/svg"
   xmlns:sodipodi="http://sodipodi.sourceforge.net/DTD/sodipodi-0.dtd"
   xmlns:inkscape="http://www.inkscape.org/namespaces/inkscape"
   width="210mm"
   height="297mm"
   viewBox="0 0 744.09448819 1052.3622047"
   id="svg2"
   version="1.1"
   inkscape:version="0.91 r13725"
   sodipodi:docname="side_a.svg">
  <defs
     id="defs4" />
  <sodipodi:namedview
     id="base"
     pagecolor="#ffffff"
     bordercolor="#666666"
     borderopacity="1.0"
     inkscape:pageopacity="0.0"
     inkscape:pageshadow="2"
     inkscape:zoom="5.6"
     inkscape:cx="56.968071"
     inkscape:cy="61.426155"
     inkscape:document-units="px"
     inkscape:current-layer="layer2"
     showgrid="true"
     inkscape:window-width="1855"
     inkscape:window-height="1056"
     inkscape:window-x="65"
     inkscape:window-y="24"
     inkscape:window-maximized="1"
     showguides="false"
     inkscape:snap-to-guides="true"
     inkscape:snap-grids="true"
     inkscape:snap-page="true"
     inkscape:snap-bbox="true"
     inkscape:snap-global="true"
     inkscape:bbox-paths="true">
    <inkscape:grid
       type="xygrid"
       id="grid3338" />
    <sodipodi:guide
       position="0,0"
       orientation="0,744.09449"
       id="guide4399" />
    <sodipodi:guide
       position="744.09449,0"
       orientation="-1052.3622,0"
       id="guide4401" />
    <sodipodi:guide
       position="744.09449,1052.3622"
       orientation="0,-744.09449"
       id="guide4403" />
    <sodipodi:guide
       position="0,1052.3622"
       orientation="1052.3622,0"
       id="guide4405" />
  </sodipodi:namedview>
  <metadata
     id="metadata7">
    <rdf:RDF>
      <cc:Work
         rdf:about="">
        <dc:format>image/svg+xml</dc:format>
        <dc:type
           rdf:resource="http://purl.org/dc/dcmitype/StillImage" />
        <dc:title></dc:title>
      </cc:Work>
    </rdf:RDF>
  </metadata>
  <g
     inkscape:groupmode="layer"
     id="layer2"
     inkscape:label="Layer 2"
     style="display:inline">
    <path
       style="fill:#ff0000;fill-opacity:1;stroke:#ff0000;stroke-width:1.78571427;stroke-linecap:square;stroke-linejoin:miter;stroke-miterlimit:4;stroke-dasharray:none;stroke-opacity:1"
       d="m 0.53949962,997.32891 0,-54.46429 54.46428538,0 54.464285,0 0,54.46429 0,54.46429 -54.464285,0 -54.46428538,0 0,-54.46429 z M 40.5395,1037.3289 l 0,-5.5357 -10,0 -10,0 0,-4.4643 0,-4.4643 10,0 10,0 0,-10 0,-10 14.464285,0 14.464286,0 0,10 0,10 10,0 10,0 0,4.4643 0,4.4643 -14.464286,0 -14.464285,0 0,-10 0,-10 -5.535715,0 -5.535714,0 0,15.5357 0,15.5357 25.535714,0 25.535715,0 0,-35.5357 0,-35.53571 -10,0 -10,0 0,-4.46428 0,-4.46429 10,0 10,0 0,-5.53571 0,-5.53572 -45.267857,0 c -40.119048,0 -45.267858,0.0305 -45.267858,0.26786 0,0.14732 -0.1205354,0.26786 -0.2678568,0.26786 -0.2368332,0 -0.2678571,2.92658 -0.2678571,25.26785 l 0,25.26784 5.5357139,0 5.535715,0 0,-19.99998 0,-20 24.464285,0 24.464286,0 0,10 0,10 10,0 10,0 0,14.46429 0,14.46429 -4.464285,0 -4.464286,0 0,-10 0,-10.00001 -20,0 -20,0 0,-4.46428 0,-4.46429 10,0 10,0 0,-5.53571 0,-5.53572 -15.535715,0 -15.535714,0 0,20 0,20.00001 -10,0 -9.9999999,0 0,15.3571 c 0,13.5318 0.031838,15.3572 0.2678571,15.3572 0.1473214,0 0.2678568,0.08 0.2678568,0.1785 0,0.1177 5.208334,0.1786 15.267858,0.1786 l 15.267857,0 0,-5.5357 z"
       id="path4423"
       inkscape:connector-curvature="0" />
  </g>
</svg>
