<?xml version="1.0" encoding="UTF-8" standalone="no"?>
<!-- Created with Inkscape (http://www.inkscape.org/) -->

<svg
   xmlns:dc="http://purl.org/dc/elements/1.1/"
   xmlns:cc="http://creativecommons.org/ns#"
   xmlns:rdf="http://www.w3.org/1999/02/22-rdf-syntax-ns#"
   xmlns:svg="http://www.w3.org/2000/svg"
   xmlns="http://www.w3.org/2000/svg"
   xmlns:sodipodi="http://sodipodi.sourceforge.net/DTD/sodipodi-0.dtd"
   xmlns:inkscape="http://www.inkscape.org/namespaces/inkscape"
   width="744.09448"
   height="1052.3622"
   viewBox="0 0 744.09449 1052.3622"
   id="svg2"
   version="1.1"
   inkscape:version="0.91 r13725"
   sodipodi:docname="side_c.svg">
  <defs
     id="defs4" />
  <sodipodi:namedview
     id="base"
     pagecolor="#ffffff"
     bordercolor="#666666"
     borderopacity="1.0"
     inkscape:pageopacity="0.0"
     inkscape:pageshadow="2"
     inkscape:zoom="5.6"
     inkscape:cx="30.360928"
     inkscape:cy="61.426155"
     inkscape:document-units="px"
     inkscape:current-layer="layer2"
     showgrid="true"
     inkscape:window-width="1855"
     inkscape:window-height="1056"
     inkscape:window-x="65"
     inkscape:window-y="24"
     inkscape:window-maximized="1"
     showguides="false"
     inkscape:snap-to-guides="true"
     inkscape:snap-grids="true"
     inkscape:snap-page="true"
     inkscape:snap-bbox="true"
     inkscape:snap-global="true"
     inkscape:bbox-paths="true"
     units="px">
    <inkscape:grid
       type="xygrid"
       id="grid3338" />
    <sodipodi:guide
       position="0,0"
       orientation="0,744.09449"
       id="guide4399" />
    <sodipodi:guide
       position="744.09449,0"
       orientation="-1052.3622,0"
       id="guide4401" />
    <sodipodi:guide
       position="744.09449,1052.3622"
       orientation="0,-744.09449"
       id="guide4403" />
    <sodipodi:guide
       position="0,1052.3622"
       orientation="1052.3622,0"
       id="guide4405" />
  </sodipodi:namedview>
  <metadata
     id="metadata7">
    <rdf:RDF>
      <cc:Work
         rdf:about="">
        <dc:format>image/svg+xml</dc:format>
        <dc:type
           rdf:resource="http://purl.org/dc/dcmitype/StillImage" />
        <dc:title></dc:title>
      </cc:Work>
    </rdf:RDF>
  </metadata>
  <g
     inkscape:groupmode="layer"
     id="layer2"
     inkscape:label="Layer 4"
     style="display:inline">
    <path
       style="display:inline;fill:#0000ff;fill-opacity:1;stroke:#0000ff;stroke-width:1.78571427;stroke-linecap:square;stroke-linejoin:miter;stroke-miterlimit:4;stroke-dasharray:none;stroke-opacity:1"
       d="m 0.53949957,997.32888 0,-54.46428 54.46428543,0 54.464285,0 0,54.46428 0,54.46432 -54.464285,0 -54.46428543,0 0,-54.46432 z M 100.5395,1017.3289 l 0,-25.53573 -5.535715,0 -5.535714,0 0,20.00003 0,20 -4.464286,0 -4.464285,0 0,-10 0,-10 -5.535715,0 -5.535714,0 0,10 0,10 -4.464286,0 -4.464285,0 0,-14.4643 0,-14.4643 10,0 10,0 0,-5.53572 0,-5.53571 -15.535715,0 -15.535714,0 0,20.00003 0,20 -4.464286,0 -4.464285,0 0,-10 0,-10 -10,0 -10,0 0,-4.4643 0,-4.4643 10,0 10,0 0,-10 0,-10 20,0 20,0 0,-5.53572 0,-5.53571 -20,0 -20,0 0,-4.46429 0,-4.46428 24.464285,0 24.464286,0 0,10 0,10 5.535714,0 5.535715,0 0,-15.53572 0,-15.53571 -45.535715,0 -45.535714,0 0,5.53571 0,5.53572 10,0 10,0 0,14.46428 0,14.46429 -4.464286,0 -4.464285,0 0,-10 0,-10 -5.535715,0 -5.535714,0 0,25.53571 0,25.53572 10,0 10,0 0,4.4643 0,4.4643 -10,0 -10,0 0,5.5357 0,5.5357 45.535714,0 45.535715,0 0,-25.5357 z"
       id="path4195"
       inkscape:connector-curvature="0" />
  </g>
</svg>
